<svg width="35" height="34" viewBox="0 0 35 34" fill="none" xmlns="http://www.w3.org/2000/svg">
<g clip-path="url(#clip0_87_659)">
<path d="M17.4993 2.83301C9.4452 2.83301 2.91602 9.17564 2.91602 16.9997C2.91602 24.8237 9.4452 31.1663 17.4993 31.1663C25.5535 31.1663 32.0827 24.8237 32.0827 16.9997C32.0827 13.2424 30.5462 9.63909 27.8113 6.98233C25.0764 4.32556 21.3671 2.83301 17.4993 2.83301ZM17.4993 7.08301C19.9156 7.08301 21.8743 8.9858 21.8743 11.333C21.8743 13.6802 19.9156 15.583 17.4993 15.583C15.0831 15.583 13.1243 13.6802 13.1243 11.333C13.1243 8.9858 15.0831 7.08301 17.4993 7.08301ZM25.6952 22.893C23.7694 25.4124 20.7297 26.8976 17.4993 26.8976C14.269 26.8976 11.2293 25.4124 9.30352 22.893C9.0107 22.4726 8.97176 21.9322 9.20143 21.4763L9.50768 20.853C10.2294 19.3669 11.7683 18.4181 13.4598 18.4163H21.5389C23.2067 18.4185 24.7281 19.3415 25.4618 20.7963L25.7973 21.4622C26.0326 21.9219 25.9936 22.4693 25.6952 22.893Z" fill="white"/>
</g>
<defs>
<clipPath id="clip0_87_659">
<rect width="35" height="34" fill="white"/>
</clipPath>
</defs>
</svg>
