<svg width="218" height="151" viewBox="0 0 218 151" fill="none" xmlns="http://www.w3.org/2000/svg">
<rect x="0.5" y="47.5" width="217" height="103" rx="9.5" fill="white" stroke="#131212"/>
<rect x="0.5" y="0.5" width="217" height="142" rx="7.5" fill="#FFFDFD" stroke="#211F1F"/>
<path d="M56.1875 109.25H47.8125L43.5625 95.25H30.8125L26.625 109.25H18.3125L33.3125 61.5625H41.0625L56.1875 109.25ZM41.375 88L37.25 74.125L33 88H41.375ZM83.25 109.25H75.3125V106.688C73.2292 108.896 70 110 65.625 110C64.7083 110 63.625 109.771 62.375 109.312C61.1667 108.812 60.125 108.167 59.25 107.375C58.3333 106.458 57.625 105.438 57.125 104.312C56.625 103.146 56.375 101.833 56.375 100.375C56.375 97.6667 57.0833 95.375 58.5 93.5C59.9583 91.625 61.7083 90.2917 63.75 89.5C65.0417 89 66.4167 88.625 67.875 88.375C69.375 88.125 70.5625 88 71.4375 88H75.3125V86.375C75.3125 86.0833 75.2292 85.5833 75.0625 84.875C74.9375 84.125 74.7083 83.4583 74.375 82.875C74 82.2917 73.4583 81.8333 72.75 81.5C72.0833 81.125 71.2708 80.9375 70.3125 80.9375C69.1042 80.9375 68.0417 81.2917 67.125 82C66.2083 82.6667 65.75 84.0208 65.75 86.0625H57.1875C57.1875 83.8125 57.4375 82.0833 57.9375 80.875C58.4375 79.6667 59.25 78.5833 60.375 77.625C61.4167 76.6667 62.8125 75.8542 64.5625 75.1875C66.3125 74.5208 68.2292 74.1875 70.3125 74.1875C74.5625 74.1875 77.7708 75.375 79.9375 77.75C82.1458 80.0833 83.25 82.875 83.25 86.125V109.25ZM75.3125 96.5625V94.4375C74.7292 94.4375 74.0625 94.4583 73.3125 94.5C72.5625 94.5 71.3333 94.6458 69.625 94.9375C68.375 95.1458 67.2292 95.6458 66.1875 96.4375C65.0208 97.3542 64.4375 98.4583 64.4375 99.75C64.4375 101.042 64.7708 101.958 65.4375 102.5C66.1042 103 66.9167 103.25 67.875 103.25C68.25 103.25 68.8333 103.188 69.625 103.062C70.4167 102.896 71.125 102.604 71.75 102.188C73.0833 101.271 74.1042 100.167 74.8125 98.875C75.1458 98.2917 75.3125 97.5208 75.3125 96.5625Z" fill="#1C1A1A"/>
<circle cx="24.5" cy="124.5" r="6.25" fill="#FFFEFE" stroke="black" stroke-width="0.5"/>
<path d="M46.75 124.5C46.75 127.971 44.1572 130.75 41 130.75C37.8428 130.75 35.25 127.971 35.25 124.5C35.25 121.029 37.8428 118.25 41 118.25C44.1572 118.25 46.75 121.029 46.75 124.5Z" fill="#282727" stroke="#FEF9F9" stroke-width="0.5"/>
<ellipse cx="57" cy="124.5" rx="6" ry="6.5" fill="#0077FD"/>
<circle cx="73.5" cy="124.5" r="6.5" fill="#FD841F"/>
<circle cx="89.5" cy="124.5" r="6.5" fill="#23C35E"/>
<rect x="119.5" y="47.5" width="85" height="83" rx="10.5" stroke="#1E1D1D"/>
<rect x="130" y="62" width="64" height="3" fill="#FD841F"/>
<rect x="130" y="70" width="64" height="3" fill="#0077FD"/>
<rect x="161" y="121" width="16" height="3" rx="1.5" fill="#0077FD"/>
<rect x="178" y="121" width="16" height="3" rx="1.5" fill="white"/>
<rect x="130" y="78" width="64" height="4" fill="#23C35E"/>
</svg>
