<svg width="29" height="28" viewBox="0 0 29 28" fill="none" xmlns="http://www.w3.org/2000/svg">
<path d="M14.5 20.3636C12.6765 20.3636 11.1224 19.743 9.83759 18.5016C8.5528 17.2603 7.90997 15.7598 7.90909 14C7.90821 12.2402 8.55105 10.7397 9.83759 9.49836C11.1241 8.25703 12.6783 7.63636 14.5 7.63636C16.3217 7.63636 17.8763 8.25703 19.1637 9.49836C20.4512 10.7397 21.0935 12.2402 21.0909 14C21.0883 15.7598 20.4454 17.2607 19.1624 18.5029C17.8794 19.7451 16.3252 20.3653 14.5 20.3636ZM5.27273 15.2727H0V12.7273H5.27273V15.2727ZM29 15.2727H23.7273V12.7273H29V15.2727ZM13.1818 5.09091V0H15.8182V5.09091H13.1818ZM13.1818 28V22.9091H15.8182V28H13.1818ZM7.11818 8.59091L3.78977 5.50455L5.66818 3.62727L8.83182 6.80909L7.11818 8.59091ZM23.3318 24.3727L20.1352 21.1591L21.8818 19.4091L25.2102 22.4955L23.3318 24.3727ZM20.1023 6.87273L23.2989 3.65909L25.2432 5.47273L21.9477 8.52727L20.1023 6.87273ZM3.75682 22.5273L7.08523 19.4409L8.89773 21.1273L5.70114 24.3409L3.75682 22.5273Z" fill="white"/>
</svg>
