<svg width="23" height="28" viewBox="0 0 23 28" fill="none" xmlns="http://www.w3.org/2000/svg">
<path d="M16.8649 17.5307H15.7991L15.4213 17.1005C17.0403 14.8694 17.8767 11.8256 17.418 8.59057C16.7839 4.16033 13.654 0.622506 9.87642 0.0806776C4.16963 -0.748001 -0.633243 4.92526 0.0683001 11.6662C0.527002 16.1284 3.52205 19.8255 7.27261 20.5745C10.0113 21.1164 12.5882 20.1283 14.4769 18.216L14.8412 18.6622V19.9212L20.575 26.694C21.1281 27.3474 22.032 27.3474 22.5851 26.694C23.1383 26.0406 23.1383 24.9729 22.5851 24.3195L16.8649 17.5307ZM8.77014 17.5307C5.41082 17.5307 2.69909 14.3276 2.69909 10.3595C2.69909 6.39138 5.41082 3.18822 8.77014 3.18822C12.1295 3.18822 14.8412 6.39138 14.8412 10.3595C14.8412 14.3276 12.1295 17.5307 8.77014 17.5307Z" fill="white"/>
<path d="M5 11H13" stroke="white" stroke-width="2" stroke-linecap="round"/>
</svg>
