<svg width="250" height="327" viewBox="0 0 250 327" fill="none" xmlns="http://www.w3.org/2000/svg">
<rect y="0.0771484" width="250" height="326.923" rx="20" fill="#FB9214"/>
<path d="M162.016 274.828L168.344 282.703V253.875H173.875V269.344H177.062V252.891H182.781V299.203H177.062V274.781H173.875V296.25H168.344V283.922L164.828 286.875L158.875 279.422C156.625 282.203 153.703 285.031 150.109 287.906L146.312 284.016C150.031 281.234 152.938 278.406 155.031 275.531C157.125 272.656 158.391 270.312 158.828 268.5H148.562V263.156H165.625C165.094 267.5 163.891 271.391 162.016 274.828ZM163.328 261.188H157.656C155.406 261.188 153.062 260.422 150.625 258.891L152.219 254.766C154.656 255.734 156.641 256.219 158.172 256.219H163.328V261.188ZM210.156 279.375H187.797V255.75H207.859V261.094H193.797V264.891H207.391V270.281H193.797V274.031H210.156V279.375ZM213.812 281.344V252.891H219.859V281.344H213.812ZM213.719 290.953C213.719 289.703 213.203 288.656 212.172 287.812C211.172 286.969 209.969 286.547 208.562 286.547C207.156 286.547 205.953 286.969 204.953 287.812C203.953 288.656 203.453 289.703 203.453 290.953C203.453 292.172 203.953 293.188 204.953 294C205.953 294.844 207.156 295.266 208.562 295.266C209.969 295.266 211.172 294.844 212.172 294C213.203 293.188 213.719 292.172 213.719 290.953ZM219.766 290.953C219.766 292.266 219.484 293.516 218.922 294.703C218.359 295.922 217.578 296.969 216.578 297.844C215.609 298.688 214.422 299.344 213.016 299.812C211.641 300.312 210.156 300.562 208.562 300.562C207 300.562 205.516 300.312 204.109 299.812C202.734 299.344 201.547 298.688 200.547 297.844C199.578 296.969 198.812 295.922 198.25 294.703C197.688 293.516 197.406 292.266 197.406 290.953C197.406 289.609 197.688 288.344 198.25 287.156C198.812 285.938 199.578 284.906 200.547 284.062C201.547 283.188 202.734 282.5 204.109 282C205.516 281.5 207 281.25 208.562 281.25C210.156 281.25 211.641 281.5 213.016 282C214.422 282.5 215.609 283.188 216.578 284.062C217.578 284.906 218.359 285.938 218.922 287.156C219.484 288.344 219.766 289.609 219.766 290.953Z" fill="white"/>
<path d="M72.9994 192L39.0005 192L72.9994 234.175L107 192L72.9994 192Z" stroke="#F25234" stroke-opacity="0.8" stroke-width="1.33333" stroke-miterlimit="10"/>
<path d="M72.9994 214.608L39.0005 214.608L72.9994 256.782L107 214.608L72.9994 214.608Z" stroke="#FBC410" stroke-opacity="0.8" stroke-width="1.33333" stroke-miterlimit="10"/>
<path d="M72.9994 237.218L39.0005 237.218L72.9994 279.392L107 237.218L72.9994 237.218Z" stroke="white" stroke-opacity="0.8" stroke-width="1.33333" stroke-miterlimit="10"/>
<path d="M72.9994 259.826L39.0005 259.826L72.9994 302L107 259.826L72.9994 259.826Z" stroke="#03A387" stroke-opacity="0.8" stroke-width="1.33333" stroke-miterlimit="10"/>
</svg>
