<svg width="248" height="327" viewBox="0 0 248 327" fill="none" xmlns="http://www.w3.org/2000/svg">
<rect width="248" height="327" rx="20" fill="#23C35E"/>
<path d="M41.2969 237.272H22.875V209.382H39.75V214.772H28.7344V220.632H37.6406V226.022H28.7344V231.835H41.2969V237.272ZM57.0938 250.257H51.375V203.944H57.0938V250.257ZM38.7188 220.491H43.4531V204.929H49.0312V247.304H43.4531V225.976H38.7188V220.491ZM82.1719 236.147H62.1094V209.757H82.1719V236.147ZM76.2656 230.71V215.194H68.0156V230.71H76.2656ZM98.9531 225.741H92.5781V250.257H86.5312V203.944H92.5781V219.741H98.9531V225.741ZM35.7656 267.241L45.6094 276.897L41.7188 280.788L33.5625 272.585C31.6562 275.866 28.6094 278.851 24.4219 281.538L20.4844 277.601C23.9844 275.382 26.5469 272.882 28.1719 270.101C29.7969 267.319 30.6094 263.976 30.6094 260.069V257.96H36.7031V260.163C36.7031 262.694 36.3906 265.054 35.7656 267.241ZM54.9375 280.647H48.8906V270.241H40.0312V264.897H48.8906V255.944H54.9375V280.647ZM55.875 303.007H31.9688V289.741H48.7969V287.397H31.7812V282.101H54.7969V294.991H37.9688V297.663H55.875V303.007ZM75.1875 271.413L83.9531 278.632L80.4375 282.663L71.9531 275.491C69.2031 278.585 65.7812 281.476 61.6875 284.163L57.8906 280.226C61.7031 277.788 64.9062 275.054 67.5 272.022C70.125 268.96 71.7031 266.46 72.2344 264.522H60.6094V259.272H79.6875C79.4062 261.522 78.8906 263.632 78.1406 265.601C77.3594 267.569 76.375 269.507 75.1875 271.413ZM92.0156 283.929H85.9688V273.054H78.5156V267.663H85.9688V255.944H92.0156V283.929ZM85.9219 293.538C85.9219 292.194 85.4062 291.054 84.375 290.116C83.3438 289.179 82.125 288.71 80.7188 288.71C79.3125 288.71 78.0938 289.179 77.0625 290.116C76.0625 291.054 75.5625 292.194 75.5625 293.538C75.5625 294.851 76.0625 295.96 77.0625 296.866C78.0938 297.772 79.3125 298.226 80.7188 298.226C82.125 298.226 83.3438 297.772 84.375 296.866C85.4062 295.96 85.9219 294.851 85.9219 293.538ZM91.9688 293.538C91.9688 294.913 91.6875 296.21 91.125 297.429C90.5625 298.679 89.7812 299.757 88.7812 300.663C87.8125 301.601 86.625 302.319 85.2188 302.819C83.8125 303.351 82.3125 303.616 80.7188 303.616C79.1562 303.616 77.6719 303.351 76.2656 302.819C74.8594 302.319 73.6562 301.601 72.6562 300.663C71.6875 299.757 70.9219 298.679 70.3594 297.429C69.7969 296.21 69.5156 294.913 69.5156 293.538C69.5156 292.132 69.7969 290.819 70.3594 289.601C70.9219 288.351 71.6875 287.257 72.6562 286.319C73.6562 285.413 74.8594 284.694 76.2656 284.163C77.6719 283.632 79.1562 283.366 80.7188 283.366C82.3125 283.366 83.8125 283.632 85.2188 284.163C86.625 284.694 87.8125 285.413 88.7812 286.319C89.7812 287.257 90.5625 288.351 91.125 289.601C91.6875 290.819 91.9688 292.132 91.9688 293.538Z" fill="white"/>
<path d="M124 261.999V228L166.175 261.999L124 296V261.999Z" stroke="#F25234" stroke-width="1.33333" stroke-miterlimit="10"/>
<path d="M146.609 261.999V228L188.783 261.999L146.609 296V261.999Z" stroke="#FBC410" stroke-width="1.33333" stroke-miterlimit="10"/>
<path d="M169.217 261.999V228L211.391 261.999L169.217 296V261.999Z" stroke="white" stroke-width="1.33333" stroke-miterlimit="10"/>
<path d="M191.828 261.999V228L234.002 261.999L191.828 296V261.999Z" stroke="#03A387" stroke-width="1.33333" stroke-miterlimit="10"/>
</svg>
